PathFileType  4	(X/Y/Z) C:\Users\antoi\Documents\MyRepositories\mobilecap\ResultsAnalysis
DataRate	CameraRate	NumFrames	NumMarkers	Units	OrigDataRate	OrigDataStartFrame	OrigNumFrames
100.0	100.0	4	51	mm	100.0	50	131
Frame#	Time	r_knee			r_shank_antsup			r_ankle			r_calc			r_5meta			r_toe			L_knee			L_shank_antsup			L_ankle			L_calc			L_5meta			L_toe			r_sh2			r_sh3			r_sh4			L_sh2			L_sh3			r_thigh1			r_thigh2			r_thigh3			r_thigh4			r_thigh5			L_thigh1			L_thigh2			L_thigh3			L_thigh4			r.ASIS			r.PSIS			L.ASIS			L.PSIS			C7			R_Shoulder			L_Shoulder			R_Sternum			L_Sternum			R_humerus			R_elbow_med			R_elbow_lat			R_forearm			R_wrist_radius			R_wrist_ulna			L_humerus			L_elbow_med			L_elbow_lat			L_forearm			L_wrist_radius			L_wrist_ulna			R_HJC			L_HJC			R_HJC_reg			L_HJC_reg			
		X1	Y1	Z1	X2	Y2	Z2	X3	Y3	Z3	X4	Y4	Z4	X5	Y5	Z5	X6	Y6	Z6	X7	Y7	Z7	X8	Y8	Z8	X9	Y9	Z9	X10	Y10	Z10	X11	Y11	Z11	X12	Y12	Z12	X13	Y13	Z13	X14	Y14	Z14	X15	Y15	Z15	X16	Y16	Z16	X17	Y17	Z17	X18	Y18	Z18	X19	Y19	Z19	X20	Y20	Z20	X21	Y21	Z21	X22	Y22	Z22	X23	Y23	Z23	X24	Y24	Z24	X25	Y25	Z25	X26	Y26	Z26	X27	Y27	Z27	X28	Y28	Z28	X29	Y29	Z29	X30	Y30	Z30	X31	Y31	Z31	X32	Y32	Z32	X33	Y33	Z33	X34	Y34	Z34	X35	Y35	Z35	X36	Y36	Z36	X37	Y37	Z37	X38	Y38	Z38	X39	Y39	Z39	X40	Y40	Z40	X41	Y41	Z41	X42	Y42	Z42	X43	Y43	Z43	X44	Y44	Z44	X45	Y45	Z45	X46	Y46	Z46	X47	Y47	Z47	X48	Y48	Z48	X49	Y49	Z49	X50	Y50	Z50	X51	Y51	Z51	

50	0.49000000	311.98020	484.26728	-97.72638	318.76932	382.24928	-112.64460	154.15106	102.36095	-157.34017	89.96000	72.71542	-208.32332	263.35051	42.27160	-111.13644	303.11905	67.01832	-166.40538	619.53117	503.08936	-351.23507	685.39791	449.04933	-335.78668	767.70498	122.14329	-334.31842	718.04350	50.25781	-283.98349	890.18486	107.64465	-360.49086	916.50208	156.04418	-305.89349	279.66840	277.32757	-127.46292	256.77267	398.72989	-72.16835	210.24586	294.01531	-82.40520	608.97464	429.24625	-381.75092	653.35558	315.41006	-387.21104	430.92604	746.54763	-51.19159	414.40602	638.73271	-74.89033	356.72666	617.99087	-47.09540	319.11415	754.75427	-28.68146	306.65808	644.12957	-60.38703	578.14601	752.33061	-352.55855	642.87433	630.79979	-325.56667	501.65487	700.49066	-412.56796	557.81733	583.71021	-376.49920	483.78851	945.21709	-79.86443	290.41384	971.67989	-201.77618	519.16191	942.83698	-334.12310	308.55790	961.04048	-291.98938	332.92745	1430.98572	-220.15509	392.64074	1402.29326	-54.16631	413.84700	1403.57056	-372.16969	459.33912	1359.53111	-191.42091	461.31362	1362.00639	-236.92906	452.82432	1287.25769	1.44173	435.17404	1067.97471	-16.39953	441.72716	1086.83596	47.86506	523.09507	1058.67896	66.97471	650.17495	945.24981	39.50114	621.25457	929.25740	77.90693	404.87297	1265.98113	-443.28297	288.31059	1089.56229	-395.07522	290.49356	1106.75107	-473.10590	309.64743	1041.48501	-505.62588	276.30112	864.69044	-517.67166	240.73293	889.86111	-543.95091	407.21973	855.21870	-120.01368	440.08210	851.63962	-306.67626	409.89716	878.18883	-123.15970	443.08689	858.73176	-288.17469	
51	0.50000000	320.82711	483.39811	-98.14349	325.89410	381.07901	-112.95637	155.38916	104.17592	-157.08152	90.82408	75.50107	-208.11556	263.52505	42.04084	-110.94289	303.53175	66.57917	-165.97485	633.26077	501.76077	-350.22669	698.71668	446.73128	-334.85402	777.65657	119.36696	-332.88918	727.89803	47.74627	-281.72888	899.78072	104.33604	-359.86904	926.68910	152.55812	-305.55331	284.59664	276.92504	-127.55703	264.09168	398.87728	-72.58641	215.54215	295.24900	-82.66666	622.12994	427.54695	-380.76748	665.42942	313.37258	-386.03191	441.91883	744.63871	-51.03822	424.64208	636.98415	-74.64059	366.52765	616.81495	-47.45542	330.04145	753.91427	-29.60992	317.00282	643.41570	-61.39744	591.91992	750.75847	-352.79844	656.48286	629.26233	-325.35057	515.00929	698.64186	-412.28638	571.20519	582.03733	-375.87315	496.54902	943.32177	-79.53651	303.63397	969.88338	-202.45229	532.72099	941.00056	-333.96299	321.91252	959.38614	-292.47297	346.00918	1429.14932	-221.13141	405.86241	1400.63995	-55.02159	427.07039	1401.51370	-373.04331	472.59206	1357.65781	-192.18545	474.63351	1360.06852	-237.73226	465.72446	1285.46591	0.75352	448.27011	1066.19577	-17.41700	454.51788	1084.96654	46.88442	536.19328	1057.37187	65.98160	664.34737	945.35068	38.07846	635.59969	928.96794	76.46405	417.77303	1263.85911	-444.01246	300.52549	1087.85898	-396.02360	302.66049	1105.22449	-474.02221	321.29474	1039.96903	-506.70970	286.75064	863.45332	-519.17130	251.12357	888.93085	-545.13876	420.00865	853.37419	-120.19945	453.52443	849.85384	-306.74847	422.84572	876.14918	-123.08918	456.37930	856.89723	-288.24400	
52	0.51000000	330.26449	482.49756	-98.68295	333.56144	379.92510	-113.36903	156.85784	106.25662	-156.76758	91.85675	78.78028	-207.85656	263.75931	41.84094	-110.73296	304.05176	66.13410	-165.51692	647.29119	500.67125	-349.05545	712.01552	444.10817	-333.79868	785.45644	116.09924	-331.35769	734.98877	45.37763	-279.68463	907.13388	99.60819	-359.16628	935.01253	147.27684	-305.02646	289.89290	276.58976	-127.74675	271.92879	399.04251	-73.07283	221.30361	296.67054	-82.95733	635.10549	426.05545	-379.62306	676.54195	311.29344	-384.66113	453.24104	742.77835	-51.03828	435.34655	635.25322	-74.55924	376.79319	615.65287	-47.87483	341.29568	753.03344	-30.69728	327.77042	642.59168	-62.50466	605.75145	749.47412	-353.37821	670.36698	628.15602	-325.37492	528.46029	696.90595	-412.08654	584.80457	580.59699	-375.18041	509.62964	941.47148	-79.37725	317.12546	968.21759	-202.91927	546.38492	939.41835	-333.96072	335.35539	957.98488	-292.73086	359.14836	1427.44762	-222.20577	419.22629	1399.21969	-56.03110	440.32676	1399.61745	-374.02332	485.96344	1355.98612	-193.10125	488.00074	1358.32037	-238.68921	478.70748	1283.84282	-0.08634	461.03063	1064.61373	-18.61424	466.97396	1083.23203	45.76093	548.88708	1056.06124	64.88655	677.93942	945.25490	36.59213	649.34659	928.52139	74.92031	430.89708	1261.88069	-444.83493	313.27277	1086.15530	-396.99446	315.36449	1103.61056	-475.00461	333.58032	1038.40343	-507.79562	298.05049	862.11529	-520.57127	262.36960	887.84776	-546.32133	433.13730	851.60093	-120.46264	467.04885	848.31219	-306.94414	436.19036	874.14899	-123.10411	469.74942	855.31762	-288.45730	
53	0.52000000	340.28973	481.57440	-99.34277	341.78275	378.80612	-113.86446	158.60162	108.63477	-156.38322	93.12342	82.59350	-207.53552	264.06753	41.67860	-110.51349	304.73842	65.69483	-165.03352	661.36175	499.71152	-347.80020	725.15355	441.26678	-332.62587	791.63598	112.66210	-329.69926	739.90631	43.48556	-278.00238	912.76146	93.87698	-358.32624	941.93529	140.57203	-304.17555	295.58069	276.34943	-128.00996	280.31344	399.25577	-73.61803	227.51776	298.31708	-83.26939	647.82499	424.71186	-378.33573	686.83963	309.20838	-383.08973	464.95259	740.98566	-51.21917	446.53122	633.55665	-74.65030	387.56448	614.50588	-48.35209	352.94430	752.11128	-31.89704	338.96481	641.66819	-63.66889	619.59364	748.43770	-354.30372	684.41747	627.40258	-325.65090	541.90487	695.28499	-411.92468	598.48096	579.36599	-374.43398	523.05892	939.64881	-79.40120	330.89778	966.71109	-203.21770	560.18050	938.06933	-334.14681	348.92789	956.78804	-292.80959	372.33275	1425.87357	-223.37746	432.69507	1398.03398	-57.18450	453.60407	1397.88677	-375.10936	499.45119	1354.53499	-194.16414	501.41456	1356.78079	-239.80168	491.76101	1282.39573	-1.07978	473.45745	1063.23541	-19.96542	479.10888	1081.65247	44.50828	561.18979	1054.76311	63.69478	690.96015	944.96351	35.05119	662.49490	927.91044	73.28476	444.23682	1260.04839	-445.75220	326.51477	1084.44148	-398.00394	328.58025	1101.92680	-476.05239	346.49380	1036.79040	-508.89640	310.19421	860.66227	-521.88916	274.48294	886.59920	-547.50839	446.61947	849.89537	-120.82433	480.68070	846.98930	-307.28350	449.88658	872.27844	-123.20628	483.20424	853.94543	-288.80246	
